<?xml version="1.0" encoding="UTF-8"?>
<!-- Created by Vectric (http://www.vectric.com/) -->
<svg width="135.00000000mm" height="135.00000000mm" viewBox="0 0 135.00000000 135.00000000" id="svg2" version="1.1" xmlns="http://www.w3.org/2000/svg" xmlns:xlink="http://www.w3.org/1999/xlink" xmlns:inkscape="http://www.inkscape.org/namespaces/inkscape">
    <g inkscape:groupmode="layer" id="e2736ec9-1966-4c15-abda-fd1783f95aa2" inkscape:label="Camada 1">
        <path style="fill:none;stroke-width:0.280000;stroke-linecap:round;stroke-linejoin:round;stroke-opacity:1;stroke:#000000;" d="M 35.000000,100.000000 L 35.000000,135.000000 L 100.000000,135.000000 L 100.000000,100.000000 L 135.000000,100.000000 L 135.000000,35.000000 L 100.000000,35.000000 L 100.000000,0.000000 L 35.000000,0.000000 L 35.000000,35.000000 L 0.000000,35.000000 L 0.000000,100.000000 L 35.000000,100.000000 "/>
        <path style="fill:none;stroke-width:0.280000;stroke-linecap:round;stroke-linejoin:round;stroke-opacity:1;stroke:#000000;" d="M 45.500000,89.500000 L 89.500000,89.500000 L 89.500000,34.500000 L 45.500000,34.500000 L 45.500000,89.500000 "/>
        <path style="fill:none;stroke-width:0.280000;stroke-linecap:round;stroke-linejoin:round;stroke-opacity:1;stroke:#000000;" d="M 41.000000,65.500000 A 1.500000,1.500000 0 0,0 39.500000,67.000000 A 1.500000,1.500000 0 0,0 41.000000,68.500000 A 1.500000,1.500000 0 0,0 42.500000,67.000000 A 1.500000,1.500000 0 0,0 41.000000,65.500000 "/>
        <path style="fill:none;stroke-width:0.280000;stroke-linecap:round;stroke-linejoin:round;stroke-opacity:1;stroke:#000000;" d="M 94.000000,65.500000 A 1.500000,1.500000 0 0,0 92.500000,67.000000 A 1.500000,1.500000 0 0,0 94.000000,68.500000 A 1.500000,1.500000 0 0,0 95.500000,67.000000 A 1.500000,1.500000 0 0,0 94.000000,65.500000 "/>
    </g>
</svg>
