<?xml version="1.0" encoding="UTF-8"?>
<!-- Created by Vectric (http://www.vectric.com/) -->
<svg width="65.00000000mm" height="145.00000000mm" viewBox="0 0 65.00000000 145.00000000" id="svg2" version="1.1" xmlns="http://www.w3.org/2000/svg" xmlns:xlink="http://www.w3.org/1999/xlink" xmlns:inkscape="http://www.inkscape.org/namespaces/inkscape">
    <g inkscape:groupmode="layer" id="a787bea0-2bbe-4f37-9914-a60c7f5a1b40" inkscape:label="Camada 1">
        <path style="fill:none;stroke-width:0.280000;stroke-linecap:round;stroke-linejoin:round;stroke-opacity:1;stroke:#000000;" d="M 10.500000,89.500000 L 54.500000,89.500000 L 54.500000,34.500000 L 10.500000,34.500000 L 10.500000,89.500000 "/>
        <path style="fill:none;stroke-width:0.280000;stroke-linecap:round;stroke-linejoin:round;stroke-opacity:1;stroke:#000000;" d="M 59.000000,65.500000 A 1.500000,1.500000 0 0,0 57.500000,67.000000 A 1.500000,1.500000 0 0,0 59.000000,68.500000 A 1.500000,1.500000 0 0,0 60.500000,67.000000 A 1.500000,1.500000 0 0,0 59.000000,65.500000 "/>
        <path style="fill:none;stroke-width:0.280000;stroke-linecap:round;stroke-linejoin:round;stroke-opacity:1;stroke:#000000;" d="M 6.000000,65.500000 A 1.500000,1.500000 0 0,0 4.500000,67.000000 A 1.500000,1.500000 0 0,0 6.000000,68.500000 A 1.500000,1.500000 0 0,0 7.500000,67.000000 A 1.500000,1.500000 0 0,0 6.000000,65.500000 "/>
        <path style="fill:none;stroke-width:0.280000;stroke-linecap:round;stroke-linejoin:round;stroke-opacity:1;stroke:#000000;" d="M 0.000000,135.000000 L 0.000000,0.000000 L 65.000000,0.000000 L 65.000000,135.000000 L 65.000000,145.000000 L 55.000000,145.000000 L 55.000000,135.000000 L 10.000000,135.000000 L 10.000000,145.000000 L 0.000000,145.000000 L 0.000000,135.000000 "/>
    </g>
</svg>
