<?xml version="1.0" encoding="UTF-8"?>
<!-- Created by Vectric (http://www.vectric.com/) -->
<svg width="165.00000000mm" height="165.00000000mm" viewBox="0 0 165.00000000 165.00000000" id="svg2" version="1.1" xmlns="http://www.w3.org/2000/svg" xmlns:xlink="http://www.w3.org/1999/xlink" xmlns:inkscape="http://www.inkscape.org/namespaces/inkscape">
    <g inkscape:groupmode="layer" id="41cf59a9-7823-4950-b754-f26fbf8d9501" inkscape:label="Camada 1">
        <path style="fill:none;stroke-width:0.280000;stroke-linecap:round;stroke-linejoin:round;stroke-opacity:1;stroke:#000000;" d="M 56.000000,80.500000 A 1.500000,1.500000 0 0,0 54.500000,82.000000 A 1.500000,1.500000 0 0,0 56.000000,83.500000 A 1.500000,1.500000 0 0,0 57.500000,82.000000 A 1.500000,1.500000 0 0,0 56.000000,80.500000 "/>
        <path style="fill:none;stroke-width:0.280000;stroke-linecap:round;stroke-linejoin:round;stroke-opacity:1;stroke:#000000;" d="M 109.000000,80.500000 A 1.500000,1.500000 0 0,0 107.500000,82.000000 A 1.500000,1.500000 0 0,0 109.000000,83.500000 A 1.500000,1.500000 0 0,0 110.500000,82.000000 A 1.500000,1.500000 0 0,0 109.000000,80.500000 "/>
        <path style="fill:none;stroke-width:0.280000;stroke-linecap:round;stroke-linejoin:round;stroke-opacity:1;stroke:#000000;" d="M 60.500000,104.500000 L 104.500000,104.500000 L 104.500000,49.500000 L 60.500000,49.500000 L 60.500000,104.500000 "/>
        <path style="fill:none;stroke-width:0.280000;stroke-linecap:round;stroke-linejoin:round;stroke-opacity:1;stroke:#000000;" d="M 5.000000,104.000000 L 15.000000,104.000000 L 15.000000,115.000000 L 50.000000,115.000000 L 50.000000,150.000000 L 61.000000,150.000000 L 61.000000,160.000000 L 50.000000,160.000000 L 50.000000,165.000000 L 115.000000,165.000000 L 115.000000,160.000000 L 104.000000,160.000000 L 104.000000,150.000000 L 115.000000,150.000000 L 115.000000,115.000000 L 150.000000,115.000000 L 150.000000,104.000000 L 160.000000,104.000000 L 160.000000,115.000000 L 165.000000,115.000000 L 165.000000,50.000000 L 160.000000,50.000000 L 160.000000,61.000000 L 150.000000,61.000000 L 150.000000,50.000000 L 115.000000,50.000000 L 115.000000,15.000000 L 104.000000,15.000000 L 104.000000,5.000000 L 115.000000,5.000000 L 115.000000,0.000000 L 50.000000,0.000000 L 50.000000,5.000000 L 61.000000,5.000000 L 61.000000,15.000000 L 50.000000,15.000000 L 50.000000,50.000000 L 15.000000,50.000000 L 15.000000,61.000000 L 5.000000,61.000000 L 5.000000,50.000000 L 0.000000,50.000000 L 0.000000,115.000000 L 5.000000,115.000000 L 5.000000,104.000000 "/>
    </g>
</svg>
